<svg width="24" height="24" viewBox="0 0 24 24" fill="none" xmlns="http://www.w3.org/2000/svg">
<path d="M16 3H6.16999C4.73999 3 3.49999 4.02 3.21999 5.43L2.04999 11.43C1.89999 12.22 2.04999 13.02 2.50999 13.68C2.95999 14.35 3.63999 14.79 4.41999 14.95C4.60999 14.99 4.79999 15 4.99999 15H9.99999V19C9.99999 20.65 11.35 22 13 22C13.42 22 13.79 21.74 13.94 21.35L16.43 14.71C16.81 13.7 17 12.63 17 11.55V4C17 3.45 16.55 3 16 3ZM15 11.55C15 12.39 14.85 13.22 14.55 14.01L12.38 19.79C12.15 19.61 11.99 19.32 11.99 19V14C11.99 13.45 11.54 13 10.99 13H4.98999C4.92999 13 4.86999 13 4.79999 12.98C4.53999 12.93 4.30999 12.78 4.15999 12.56C4.00999 12.34 3.95999 12.07 4.00999 11.81L5.17999 5.81C5.26999 5.34 5.67999 5 6.15999 5H14.99V11.55H15ZM22 5V11C22 12.1 21.1 13 20 13H19C18.45 13 18 12.55 18 12V4C18 3.45 18.45 3 19 3H20C21.1 3 22 3.9 22 5Z" fill="#202124" fill-opacity="0.72"/>
</svg>
