<svg width="24" height="24" viewBox="0 0 24 24" fill="none" xmlns="http://www.w3.org/2000/svg">
<path d="M17.0001 3.99999V11.55C17.0001 12.63 16.8101 13.7 16.4301 14.71L13.9401 21.35C13.7901 21.74 13.4201 22 13.0001 22C11.3501 22 10.0001 20.65 10.0001 19V15H5.00008C4.81008 15 4.62008 14.98 4.42008 14.94C3.64008 14.79 2.96008 14.34 2.51008 13.67C2.06008 13.01 1.90008 12.21 2.05008 11.42L3.22008 5.41999C3.49008 4.00999 4.73008 2.98999 6.17008 2.98999H16.0001C16.5501 2.98999 17.0001 3.43999 17.0001 3.98999V3.99999ZM20.0001 2.99999H19.0001C18.4501 2.99999 18.0001 3.44999 18.0001 3.99999V12C18.0001 12.55 18.4501 13 19.0001 13H20.0001C21.1001 13 22.0001 12.1 22.0001 11V4.99999C22.0001 3.89999 21.1001 2.99999 20.0001 2.99999Z" fill="white"/>
</svg>
