<svg width="24" height="24" viewBox="0 0 24 24" fill="none" xmlns="http://www.w3.org/2000/svg">
<path d="M19.58 9.06001C19.39 9.02001 19.19 9.01001 19 9.01001H14V5.01001C14 3.36001 12.65 2.01001 11 2.01001C10.58 2.01001 10.21 2.27001 10.06 2.66001L7.57 9.30001C7.19 10.31 7 11.38 7 12.46V20.01C7 20.56 7.45 21.01 8 21.01H17.83C19.26 21.01 20.5 19.99 20.77 18.58L21.94 12.58C22.09 11.79 21.94 10.99 21.48 10.33C21.03 9.66001 20.35 9.22001 19.57 9.06001H19.58ZM18.82 18.19C18.73 18.66 18.32 19 17.84 19H9.01V12.45C9.01 11.61 9.16 10.78 9.46 9.99001L11.63 4.21001C11.86 4.39001 12.02 4.68001 12.02 5.00001V10C12.02 10.55 12.47 11 13.02 11H19.02C19.08 11 19.14 11 19.21 11.02C19.47 11.07 19.7 11.22 19.85 11.44C20 11.66 20.05 11.93 20 12.19L18.83 18.19H18.82ZM6 12V20C6 20.55 5.55 21 5 21H4C2.9 21 2 20.1 2 19V13C2 11.9 2.9 11 4 11H5C5.55 11 6 11.45 6 12Z" fill="#202124" fill-opacity="0.72"/>
</svg>
