<svg width="24" height="24" viewBox="0 0 24 24" fill="none" xmlns="http://www.w3.org/2000/svg">
<path d="M21.49 10.32C21.94 10.98 22.1 11.78 21.95 12.57L20.78 18.57C20.51 19.98 19.27 21 17.84 21H8.01C7.46 21 7.01 20.55 7.01 20V12.45C7.01 11.37 7.2 10.3 7.58 9.29L10.07 2.65C10.22 2.26 10.59 2 11.01 2C12.66 2 14.01 3.35 14.01 5V9H19.01C19.2 9 19.39 9.02 19.59 9.06C20.37 9.21 21.05 9.66 21.5 10.33L21.49 10.32ZM5 11H4C2.9 11 2 11.9 2 13V19C2 20.1 2.9 21 4 21H5C5.55 21 6 20.55 6 20V12C6 11.45 5.55 11 5 11Z" fill="white"/>
</svg>
