<?xml version="1.0" encoding="UTF-8"?><svg id="_Слой_1" xmlns="http://www.w3.org/2000/svg" viewBox="0 0 47.99 50"><path d="M34,29.51l7.66-7.46c.32-.32.44-.79.3-1.22-.14-.43-.52-.76-.97-.82l-10.58-1.54c-.26-.04-.49-.2-.6-.43l-4.73-9.59c-.41-.82-1.75-.82-2.15,0l-4.73,9.59c-.12.24-.35.4-.6.44l-10.58,1.54c-.46.06-.83.38-.97.82-.14.43-.02.91.3,1.22l7.66,7.46c.19.18.28.44.23.71l-1.81,10.54c-.07.46.11.9.48,1.18.2.16.46.23.71.23.19,0,.38-.05.56-.14l9.47-4.98c.24-.12.52-.12.74,0l9.47,4.98c.41.22.9.18,1.26-.1.37-.26.55-.72.48-1.18l-1.81-10.54c-.05-.26.04-.53.23-.71Z" fill="#ff8200"/></svg>