<svg width="34" height="32" viewBox="0 0 34 32" fill="none" xmlns="http://www.w3.org/2000/svg">
<path d="M15.4775 1.53125C16.0583 0.156293 17.9417 0.156291 18.5225 1.53125L21.6553 8.95117C22.0474 9.88006 22.915 10.5164 23.9131 10.5879L31.9492 11.1631C33.4418 11.2699 34.076 13.241 32.8643 14.2305L26.9043 19.0947C26.0799 19.7676 25.7258 20.871 25.9902 21.9072L27.8848 29.333C28.2722 30.8508 26.693 32.0087 25.4463 31.2617L18.3467 27.0068C17.5153 26.5086 16.4847 26.5086 15.6533 27.0068L8.55371 31.2617C7.30702 32.0087 5.72785 30.8507 6.11523 29.333L8.00977 21.9072C8.27416 20.871 7.92006 19.7676 7.0957 19.0947L1.13574 14.2305C-0.0759918 13.241 0.558149 11.2699 2.05078 11.1631L10.0869 10.5879C11.085 10.5164 11.9526 9.88006 12.3447 8.95117L15.4775 1.53125Z" stroke="#FEE2B6"/>
</svg>
