<svg width="34" height="32" viewBox="0 0 34 32" fill="none" xmlns="http://www.w3.org/2000/svg">
<path d="M15.0166 1.33718C15.7693 -0.445729 18.2307 -0.445728 18.9834 1.33719L22.1155 8.75697C22.4365 9.51759 23.1434 10.0311 23.9485 10.0888L31.9854 10.6642C33.9532 10.805 34.7243 13.3574 33.18 14.6179L27.2206 19.4822C26.5498 20.0298 26.2571 20.9326 26.4744 21.7839L28.3696 29.2093C28.8578 31.122 26.852 32.6869 25.1892 31.6905L18.0893 27.4358C17.4162 27.0324 16.5838 27.0324 15.9107 27.4358L8.81081 31.6905C7.14805 32.6869 5.14215 31.122 5.63036 29.2093L7.52561 21.7839C7.74291 20.9326 7.45022 20.0298 6.77941 19.4822L0.819999 14.6179C-0.72432 13.3574 0.0468515 10.805 2.0146 10.6642L10.0515 10.0888C10.8566 10.0311 11.5635 9.51759 11.8845 8.75697L15.0166 1.33718Z" fill="#FEE2B6"/>
</svg>
